# xmcd CD database file
#
# Track frame offsets:
#	183
#	12698
#	23415
#	36283
#	45930
#	57375
#	70903
#	83638
#	94935
#	107803
#	118420
#	128608
#	139415
#	153310
#	163738
#	175993
#	186455
#	201450
#	210468
#	222673
#	236833
#	249858
#	264658
#	277623
#	292503
#	304955
#	318458
#	331470
#
# Disc length: 4613 seconds
#
# Revision: 1
# Processed by: cddbd v1.5.2PL0 Copyright (c) Steve Scherf et al.
# Submitted via: CDex 1.70beta2
#
DISCID=a112031c
DTITLE=Anthony , Richard (1965-1967) - Le Déserteur
DYEAR=1993
DGENRE=Chanson
TTITLE0=Quand Tu M'as Parlé (How Insensitive) (11-1965)
TTITLE1=Le Monde (Il Mondo) (11-1965)
TTITLE2=Si Tu Restes Avec Moi (In The Middle Of Nowhere) (11-1965)
TTITLE3=Dis-Moi, Que Fais-Tu Là Bas ? (11-1965)
TTITLE4=Un Jour Gris, Un Jour Bleu (12-1965)
TTITLE5=Tiens Bon (Let's hang On) (12-1965)
TTITLE6=La Bourse Ou La Vie (1966)
TTITLE7=Que Te Dire Encore ? (1-1966)
TTITLE8=Le Soleil Ne Brille Plus  (The Sun Ain't Gonna Shine Anymore) (4-1966)
TTITLE9=Rien Pour Faire Une Chanson (Run For Your Life) (4-1966)
TTITLE10=La Terre Promise (California Dreamin') (4-1966)
TTITLE11=Un Autographe Svp (Homeward Bound) (4-1966)
TTITLE12=Lundi, Lundi (Monday Monday) (6-1966)
TTITLE13=Un Matin (Ebb Tide) (6-1966)
TTITLE14=Un Papillon Qui Vole (Elusive Butterfly) (6-1966)
TTITLE15=Sur Notre Plage (Pretty Flamingo) (6-1966)
TTITLE16=Le Déserteur (6-1966)
TTITLE17=Le Même Chemin (A Groovy Kind Of Love) (6-1966)
TTITLE18=Un Sourire (J'en Ai Tant Besoin) (Just One Smile) (6-1966)
TTITLE19=Mes Amis (6-1966)
TTITLE20=La Voix Du Silence (The Sound Of Silence) (6-1966)
TTITLE21=Baby (Out Of Time) (6-1966)
TTITLE22=Sunny (Sunny) (9-1966)
TTITLE23=Je Ne Vois Que Toi (All I See Is you) (9-1966)
TTITLE24=Les Fous Et Les Sages (Beggar's Parade) (2-1967)
TTITLE25=Nous Ne Sortirons Qu'au Printemps (2-1967)
TTITLE26=Et Après ? (2-1967)
TTITLE27=Fille Sauvage (Ruby Tuesday) (2-1967)
EXTD=YEAR: 1993
EXTT0=
EXTT1=
EXTT2=
EXTT3=
EXTT4=
EXTT5=
EXTT6=
EXTT7=
EXTT8=
EXTT9=
EXTT10=
EXTT11=
EXTT12=
EXTT13=
EXTT14=
EXTT15=
EXTT16=
EXTT17=
EXTT18=
EXTT19=
EXTT20=
EXTT21=
EXTT22=
EXTT23=
EXTT24=
EXTT25=
EXTT26=
EXTT27=
PLAYORDER=
